# xmcd
# 
# Track frame offsets:
#     151
#     18630
#     32658
#     53002
#     71598
#     85185
#     94202
#     108737
#     118129
#     141001
#     158951
#     181927
# 
# Disc length: 2544
# 
# Revision: 0
# Processed by: cddbd v1.5.2PL0 Copyright (c) Steve Scherf et al.
# Submitted via: fre:ac v1.0.31
# 
DISCID=a209ee0c
DTITLE=The Lochies - Tìr àluinn
DYEAR=1998
DGENRE=Celtic
TTITLE0=Theid Thu Leam Ma's Toil Leat E
TTITLE1=Nighneag A' Chuill Duinn
TTITLE2=Muisgean Caol
TTITLE3=Gradh Na H-Oige
TTITLE4=Do Charaid
TTITLE5=Mo Nighean Dubh
TTITLE6=Seoladh Dhachaidh
TTITLE7=Adhartas Na Gaidhlig
TTITLE8=Latha D 1944
TTITLE9=Mo Chridhe Trom 'S Mi Seoladh
TTITLE10=Mointeach Shiadair
TTITLE11=Posadh Piuthar 'An Bhain
EXTD=
EXTT0=
EXTT1=
EXTT2=
EXTT3=
EXTT4=
EXTT5=
EXTT6=
EXTT7=
EXTT8=
EXTT9=
EXTT10=
EXTT11=
PLAYORDER=
